<?xml version="1.0" encoding="UTF-8" standalone="no"?>

<svg
   version="1.1"
   id="svg2"
   width="135.27003"
   height="133.5146"
   viewBox="0 0 135.27003 133.5146"
   xml:space="preserve"
   xmlns="http://www.w3.org/2000/svg"
   xmlns:svg="http://www.w3.org/2000/svg">
   <defs id="defs6" />
   <path
     d="m 63.916705,78.389996 c -0.370667,7.141333 -0.462667,13.752 -0.989333,20.915999 2.825333,0.253334 6.016,0.501334 9.029333,0.06267 L 71.058038,79.408663 70.899371,78.455329 c -2.295999,0.09067 -4.467999,0.184 -6.982666,-0.06533 M 46.260705,58.334 c -3.481333,1.745333 -8.603999,4.382666 -8.039999,9.158666 0.746666,2.606667 3.569333,4.289333 5.803999,5.366666 12.348,5.438667 28.741333,5.625334 41.779999,1.564 3.218667,-1.244 7.537334,-3.042666 8.129334,-6.985333 -0.03467,-3.258666 -3.482667,-5.309333 -5.961334,-6.556 v -0.154666 c 0.864,-0.342667 1.857334,-0.648 2.753334,-0.744 v -0.08667 c -4.368,-0.781333 -8.584,-1.924 -12.813333,-3.042666 0.814666,1.855999 1.401333,3.813333 2.081333,5.742666 1.270667,-0.406667 2.574667,-0.716 3.945333,-0.902667 2.230667,0.868 5.424,2.110667 5.74,4.9 0.248,2.606667 -2.605333,3.877334 -4.408,4.934667 -9.562666,3.481333 -20.322666,3.82 -30.295999,1.177333 -2.754667,-0.872 -6.730667,-1.985333 -7.072,-5.492 1.956,-4.617333 7.012,-5.578666 11.236,-6.701333 -2.170667,-1.397333 -4.377333,-2.636 -6.482667,-4.192 -2.270666,0.125334 -4.348,1.12 -6.396,2.013334 m 21.128,-27.862666 -1.237333,3.974666 -6.208,17.78 c 1.553333,0.158666 3.478666,0 5.005333,0.158666 v 0.146667 l -0.908,20.111999 0.157333,0.216 c 1.985334,0.192 4.465334,0.292 6.488,-0.05333 v -0.317333 l -0.809333,-19.509333 0.121333,-0.66 5.462667,-0.09333 c -2.725334,-7.197333 -5.368,-14.468 -7.912,-21.754666 z m -2.885333,-8.933334 c 4.568,-3.112 8.665333,1.237334 12.203999,3.724 13.682667,11.012 26.594669,23.617333 36.431999,37.853333 1.24133,1.837333 1.8,4.689333 0.68933,6.768 -2.552,4.255999 -5.992,8.138666 -9.25466,12.081333 v 0.213333 c -8.134669,8.658666 -16.725336,17.562666 -26.009335,24.894664 -4.529334,2.75866 -8.688,8.78 -14.524,5.04933 -13.286666,-9.71067 -26.001333,-21.781328 -36.781332,-34.729327 -1.826667,-2.849334 -4.681334,-5.181334 -5.952,-8.409333 -1.774667,-4.370667 2.137333,-7.509334 4.376,-10.8 10.989333,-13.556 24.638666,-26.847999 38.819999,-36.645333 M 75.956705,8.591331 70.899371,1.4246645 c -0.619999,-0.38 -1.394666,-1.004 -2.077333,-1.188 -1.493333,-0.64533332 -3.101333,0.136 -4.318666,1.06 L 55.352705,13.216664 c -14.681333,18.18 -32.059999,35.159999 -51.0213321,48.174666 -1.4986667,1.170666 -3.72799997,2.313333 -4.19066663,4.244 -0.49866665,1.737333 0.40666666,3.169333 1.48266663,4.248 15.1826671,10.461333 29.6999991,22.874666 42.6199991,37.03333 2.294667,2.412 4.154667,4.80533 6.397333,7.06933 3.778667,5.03067 8.22,10.096 11.693333,15.49067 1.088,1.14266 1.276,3.01066 2.98,3.56666 1.333334,0.46134 2.98,0.776 4.250667,0 l 1.265333,-1.27066 c 15.710666,-22.256 35.634662,-42.242664 57.894662,-58.377331 2.22934,-1.991999 6.484,-2.733333 6.54534,-6.426666 -0.15867,-1.704 -1.14934,-3.382667 -2.61334,-4.314667 l -0.36533,-0.05733 C 120.8367,54.803333 110.16337,45.99 100.10737,35.992667 L 88.995371,24.383331 c -4.502667,-4.992 -8.877333,-10.518667 -13.038666,-15.792 M 62.862038,18.801997 c 4.466667,-3.475999 10.086667,-0.590666 13.845333,2.606667 3.936,3.009333 8.036,6.417333 11.633333,9.901333 l 0.654667,0.376 c 9.964,9.244 19.217329,19.518666 26.819999,30.382666 1.232,1.890667 2.32133,4.032 1.63333,6.541333 -2.536,6.337333 -7.68666,11.390667 -12.19066,16.921333 -9.744002,10.492 -20.022669,20.639991 -31.530669,28.737331 -2.328,1.644 -5.466666,3.16533 -8.254666,1.86 -8.470666,-4.43467 -15.613333,-11.69734 -23.026666,-18.315998 -8.598667,-7.973333 -17.228,-17.254666 -23.745333,-26.962666 -0.968,-1.366666 -1.24,-3.045333 -1.212,-4.842666 0.838667,-3.353334 3.133333,-6.110667 5.306667,-8.936 7.701333,-9.813333 17.131999,-19.121333 26.655999,-27.623999 0.22,-0.217334 0.628,-0.68 0.972,-0.902667 4.090667,-3.536 8.154666,-6.666667 12.438666,-9.742667"
     style="fill:#ffffff;fill-opacity:1;fill-rule:nonzero;stroke:none;stroke-width:0"
     id="kite" />
  <style>
    @media (prefers-color-scheme: light) {
      :root {
        filter: invert(100%);
      }
    }
  </style>
</svg>
